<?xml version="1.0" encoding="UTF-8"?>
<svg width="257px" height="242px" viewBox="0 0 257 242" version="1.1" xmlns="http://www.w3.org/2000/svg" xmlns:xlink="http://www.w3.org/1999/xlink">
    <title>Group</title>
    <defs>
        <linearGradient x1="50%" y1="-6.37797552%" x2="50%" y2="78.2057339%" id="linearGradient-1">
            <stop stop-color="#13CCFF" offset="0%"></stop>
            <stop stop-color="#236EED" offset="100%"></stop>
        </linearGradient>
    </defs>
    <g id="Page-1" stroke="none" stroke-width="1" fill="none" fill-rule="evenodd">
        <g id="Group" fill-rule="nonzero">
            <path d="M69.2640653,242 C73.811706,242 77.1932849,239.66747 82.673775,234.535904 L124.768603,196.049157 L203.594374,196.049157 C238.343013,196.049157 257,176.92241 257,142.750843 L257,53.4149398 C257,19.2433735 238.343013,0 203.594374,0 L53.4056261,0 C18.6569873,0 0,19.126747 0,53.4149398 L0,142.750843 C0,177.039036 18.6569873,196.049157 53.4056261,196.049157 L58.8861162,196.049157 L58.8861162,229.98747 C58.8861162,237.218313 62.6175136,242 69.2640653,242 Z" id="􀌫" fill="url(#linearGradient-1)"></path>
            <g id="app-store-apple-watch" transform="translate(64.000000, 33.000000)" fill="#FFFFFF">
                <path d="M127.399296,80.1166398 C128.437374,81.5349642 129,83.2717172 129,85.0542905 C129,86.8384583 128.437374,88.5728458 127.399296,89.9919676 C126.354419,91.4189564 124.909898,92.4256173 123.254615,92.9076111 C122.46903,93.1367568 121.67893,93.2386852 120.869105,93.2876736 C119.976621,93.3406138 119.085643,93.3358723 118.19316,93.3358723 L109.702069,93.3358723 L116.172387,105.015883 C116.619005,105.821047 117.06866,106.623051 117.469783,107.45508 C117.835273,108.210463 118.144628,108.973749 118.347084,109.797876 C118.774004,111.532258 118.660254,113.340123 117.996776,114.996278 C117.336335,116.642163 116.174645,118.017816 114.693011,118.909106 C113.210574,119.801187 111.487789,120.161495 109.789269,119.933142 C108.080888,119.704788 106.522669,118.903575 105.294255,117.651186 C104.710399,117.056203 104.230406,116.394845 103.785319,115.688452 C103.294711,114.909364 102.853388,114.102619 102.40677,113.297455 L74.3455306,62.6511437 C71.6362359,57.7609077 70.5602676,52.044953 71.4406053,46.4736077 C72.0479739,42.6310956 73.6319903,38.4014244 77.1723648,34.6245059 L100.524765,76.7719298 L118.19316,76.7719298 C119.085643,76.7719298 119.976621,76.7679962 120.869105,76.8209393 C121.67893,76.8691249 122.46903,76.9718479 123.254615,77.2010019 C124.909898,77.6829901 126.354419,78.6896244 127.399296,80.1166398 Z M47.0065502,74.7457778 L70.3992615,74.7457778 C77.9724058,74.7457778 83.4725525,82.4501366 81.2574453,90.0856125 C81.0386109,90.8427434 80.815199,91.3483031 80.7239875,91.541502 L10.8300705,91.541502 C9.93567101,91.541502 9.04203108,91.5461987 8.14838852,91.4925182 C7.33605879,91.4428447 6.54500371,91.3386875 5.75698891,91.1071397 C4.09889278,90.6184046 2.65052544,89.5976643 1.60414525,88.1499083 C0.56384475,86.7117466 0,84.9531013 0,83.1439793 C0,81.3364743 0.56384475,79.5754301 1.60414525,78.1372684 C2.65052544,76.6902943 4.09889278,75.6695806 5.75698891,75.1808511 C6.54500371,74.9484921 7.33605879,74.8443323 8.14838852,74.7954726 C9.04203108,74.7417892 9.93567101,74.7457778 10.8300705,74.7457778 L28.6116859,74.7457778 L54.5607082,27.3578845 L47.9001978,15.1940254 C47.4526199,14.3775892 47.0019988,13.5643872 46.6000134,12.7207051 C46.2337374,11.9547725 45.9236916,11.180809 45.7208001,10.345158 C45.2929885,8.58651245 45.4077375,6.7533514 46.0726415,5.07485375 C46.7337483,3.40514183 47.8971549,2.01104239 49.3827531,1.10648155 C50.8675971,0.202728896 52.5948394,-0.163407335 54.2977635,0.0673346607 C56.0090626,0.300474915 57.5714117,1.11208714 58.8016857,2.38200265 C59.3868222,2.98529496 59.8678209,3.65590706 60.3146448,4.37298031 C60.8055527,5.16136166 61.2485533,5.97938797 61.6953772,6.79663242 L63.7577374,10.5622634 L65.8201231,6.79663242 C66.2677013,5.98019646 66.710728,5.16217016 67.2016101,4.37298031 C67.6476797,3.65590706 68.1294327,2.98529496 68.7130348,2.38200265 C69.9448432,1.11208714 71.5071922,0.300474915 73.2184911,0.0681159382 C74.919907,-0.163407335 76.6486575,0.202728896 78.1335017,1.10648155 C79.6191,2.01104239 80.7817523,3.40514183 81.4428591,5.07485375 C82.1085433,6.7533514 82.2232925,8.58651245 81.7947003,10.345158 C81.5925632,11.180809 81.2817632,11.9547725 80.9162676,12.7207051 C80.5135018,13.5643872 80.0628807,14.3775892 79.6160568,15.1940254 L47.0065502,74.7457778 Z M15.0845951,96.0450603 C25.3430928,93.1116744 29.8790275,100.176579 30.3529412,100.973704 L24.2773041,112.611887 C23.8431733,113.442429 23.4134597,114.274602 22.9365766,115.078247 C22.5039164,115.806905 22.0373539,116.489108 21.4705493,117.102845 C20.276499,118.394708 18.7603509,119.221175 17.1004746,119.456726 C15.4494427,119.692277 13.7755628,119.320612 12.3338594,118.400414 C10.8928901,117.481031 9.76444005,116.062018 9.12319081,114.364256 C8.47752155,112.655899 8.36695954,110.791052 8.78193029,109.002004 C8.97872585,108.1519 9.27944901,107.364557 9.63397862,106.585364 C10.0253626,105.72711 10.4624448,104.899828 10.8951024,104.069286 L15.0845951,96.0450603 Z" id="Shape"></path>
            </g>
        </g>
    </g>
</svg>